{"title":"Ghost Hunters - S06E21 - Home Is Where The Heart Is[tNe.XViD].av","uid":5935355,"size":366688872,"categoryP":"video","categoryS":"tv_shows","magnet":"?xt=urn:btih:2b683d4e3cdeb035d956741b6596b6c1ddc04639&amp;dn=Ghost+Hunters+-+S06E21+-+Home+Is+Where+The+Heart+Is%5BtNe.XViD%5D.av&amp;tr=udp%3A%2F%2Ftracker.openbittorrent.com%3A80&amp;tr=udp%3A%2F%2Fopen.demonii.com%3A1337&amp;tr=udp%3A%2F%2Ftracker.coppersurfer.tk%3A6969&amp;tr=udp%3A%2F%2Fexodus.desync.com%3A6969","seeders":2,"leechers":0,"uploader":"trialNerror","files":1,"time":1288924873,"description":"Format                           : AVI\nFormat/Info                      : Audio Video Interleave\nFile size                        : 350 MiB\nDuration                         : 43mn 30s\nOverall bit rate                 : 1,124 Kbps\nWriting application              : MEncoder SVN-r30881(20100311-gcc4.3.3)\nWriting library                  : MPlayer\n\nVideo\nID                               : 0\nFormat                           : MPEG-4 Visual\nFormat profile                   : Advanced Simple@L5\nFormat settings, BVOP            : Yes\nFormat settings, QPel            : No\nFormat settings, GMC             : No warppoints\nFormat settings, Matrix          : Default (H.263)\nCodec ID                         : XVID\nCodec ID/Hint                    : XviD\nDuration                         : 43mn 30s\nBit rate                         : 982 Kbps\nWidth                            : 624 pixels\nHeight                           : 352 pixels\nDisplay aspect ratio             : 16:9\nFrame rate                       : 29.970 fps\nColor space                      : YUV\nChroma subsampling               : 4:2:0\nBit depth                        : 8 bits\nScan type                        : Progressive\nBits/(Pixel*Frame)               : 0.149\nStream size                      : 306 MiB (87%)\nWriting library                  : XviD 1.2.1 (UTC 2008-12-04)\n\nAudio\nID                               : 1\nFormat                           : MPEG Audio\nFormat version                   : Version 1\nFormat profile                   : Layer 3\nMode                             : Joint stereo\nMode extension                   : MS Stereo\nCodec ID                         : 55\nCodec ID/Hint                    : MP3\nDuration                         : 43mn 28s\nBit rate mode                    : Constant\nBit rate                         : 128 Kbps\nChannel(s)                       : 2 channels\nSampling rate                    : 48.0 KHz\nVideo delay                      : 33ms\nStream size                      : 39.8 MiB (11%)\nAlignment                        : Aligned on interleaves\nInterleave, duration             : 24 ms (0.72 video frame)\nInterleave, preload duration     : 504 ms\n\n","torrent":{"xt":"urn:btih:2b683d4e3cdeb035d956741b6596b6c1ddc04639","amp;dn":"Ghost+Hunters+-+S06E21+-+Home+Is+Where+The+Heart+Is%5BtNe.XViD%5D.av","amp;tr":["udp%3A%2F%2Ftracker.openbittorrent.com%3A80","udp%3A%2F%2Fopen.demonii.com%3A1337","udp%3A%2F%2Ftracker.coppersurfer.tk%3A6969","udp%3A%2F%2Fexodus.desync.com%3A6969"],"infoHash":"2b683d4e3cdeb035d956741b6596b6c1ddc04639","infoHashBuffer":{"type":"Buffer","data":[43,104,61,78,60,222,176,53,217,86,116,27,101,150,182,193,221,192,70,57]},"announce":[],"urlList":[]}}